#!OML:ASF E:\Steps\Project 1\Capture day 1\Session 2\Subject.ASF
:FULLY-SPECIFIED
:DEGREES
34
root 8.98698 16.272 31.6777 -158.699 -2.83476 176.047
lowerback -25.3656 -2.70405 -9.14904
upperback -1.32685 -1.31385 -1.34498
thorax 12.8838 -1.33274 3.18701
lowerneck 0.487811 -2.84006 -1.76217
upperneck -17.3481 -4.43427 5.67255
head -5.11371 -2.9407 2.30281
rclavicle -8.54774e-015 -3.02153e-014
rhumerus -33.6911 -18.8203 -80.2752
rradius 26.1738
rwrist -0.0151652
rhand -9.01565 -55.4781
rfingers 7.12502
rthumb 16.9314 -84.7601
lclavicle -8.54774e-015 -3.02153e-014
lhumerus -30.2175 23.4577 72.0477
lradius 8.00811
lwrist -27.4447
lhand -21.0378 -9.83366
lfingers 7.12502
lthumb 5.33783 20.0791
rfemur -19.6508 6.88577 16.076
rtibia 9.73536
rfoot -20.2802 -9.14949
rtoes -32.3091
lfemur -21.6883 -10.6252 -23.7113
ltibia 12.642
lfoot -10.5261 1.05642
ltoes -38.7511
35
root 8.98712 16.2702 31.6768 -158.692 -2.84159 176.104
lowerback -25.3966 -2.6984 -9.10503
upperback -1.2846 -1.30848 -1.32292
thorax 12.95 -1.329 3.18795
lowerneck 0.141185 -2.81774 -1.83415
upperneck -16.7841 -4.37357 5.63651
head -4.8823 -2.87594 2.27655
rclavicle -1.93815e-015 3.65764e-014
rhumerus -33.6342 -18.7299 -80.3051
rradius 26.2172
rwrist -0.156773
rhand -9.07785 -55.5874
rfingers 7.12502
rthumb 16.8715 -84.8745
lclavicle -1.93815e-015 3.65764e-014
lhumerus -30.1402 23.4998 72.0559
lradius 8.01713
lwrist -27.4085
lhand -21.0315 -9.64558
lfingers 7.12502
lthumb 5.3439 20.267
rfemur -19.6593 6.95392 16.1442
rtibia 9.74807
rfoot -20.2339 -9.24528
rtoes -32.5819
lfemur -21.6712 -10.6259 -23.6439
ltibia 12.579
lfoot -10.515 1.17334
ltoes -39.423
36
root 8.98707 16.2687 31.6755 -158.696 -2.86056 176.146
lowerback -25.4569 -2.72083 -9.07405
upperback -1.23308 -1.33295 -1.29223
thorax 13.0477 -1.341 3.19433
lowerneck 0.199541 -2.82427 -1.83172
upperneck -16.8625 -4.38125 5.68608
head -4.91472 -2.88723 2.29541
rclavicle 8.84592e-015 -6.75868e-015
rhumerus -33.5498 -18.6142 -80.3605
rradius 26.2308
rwrist -0.125657
rhand -9.06677 -55.7905
rfingers 7.12502
rthumb 16.8822 -85.0767
lclavicle 8.84592e-015 -6.75868e-015
lhumerus -30.1658 23.5748 72.0124
lradius 8.12959
lwrist -27.349
lhand -20.9917 -9.66262
lfingers 7.12502
lthumb 5.38232 20.249
rfemur -19.6357 7.07356 16.1813
rtibia 9.72971
rfoot -20.2126 -9.27911
rtoes -32.3658
lfemur -21.6543 -10.6414 -23.5809
ltibia 12.5584
lfoot -10.6211 1.22728
ltoes -39.8838
37
root 8.98576 16.2708 31.6765 -158.664 -2.85418 176.116
lowerback -25.5396 -2.75844 -9.10261
upperback -1.17985 -1.3572 -1.28778
thorax 13.1603 -1.35733 3.20351
lowerneck 0.344252 -2.83609 -1.75293
upperneck -17.1709 -4.4118 5.74584
head -5.03354 -2.92849 2.31467
rclavicle 1.45113e-014 0
rhumerus -33.4235 -18.6234 -80.3799
rradius 26.1965
rwrist -0.0874706
rhand -8.97804 -55.7964
rfingers 7.12502
rthumb 16.9676 -85.0753
lclavicle 1.45113e-014 0
lhumerus -29.4022 23.9616 72.4861
lradius 7.18526
lwrist -27.4816
lhand -21.7936 -9.70289
lfingers 7.12502
lthumb 4.60806 20.227
rfemur -19.6749 7.14311 16.1156
rtibia 9.74098
rfoot -20.2688 -9.25611
rtoes -31.9156
lfemur -21.6992 -10.6313 -23.6136
ltibia 12.5891
lfoot -10.6371 1.10109
ltoes -39.2067
38
root 8.98512 16.2732 31.6778 -158.638 -2.83374 176.098
lowerback -25.3695 -2.68919 -9.07746
upperback -1.2965 -1.30736 -1.34681
thorax 12.9197 -1.32547 3.14601
lowerneck 0.501051 -2.93086 -1.79395
upperneck -16.9772 -4.48222 5.96295
head -4.99009 -2.959 2.38893
rclavicle 7.00716e-015 -6.32135e-014
rhumerus -33.6574 -18.7345 -80.3006
rradius 26.2118
rwrist -0.0707495
rhand -8.8012 -55.8321
rfingers 7.12502
rthumb 17.1378 -85.0963
lclavicle 7.00716e-015 -6.32135e-014
lhumerus -30.2562 23.548 71.9106
lradius 8.256
lwrist -27.3366
lhand -21.2729 -10.1012
lfingers 7.12502
lthumb 5.11081 19.8172
rfemur -19.7074 7.04614 16.0912
rtibia 9.7404
rfoot -20.3234 -9.1752
rtoes -31.8626
lfemur -21.7609 -10.619 -23.6351
ltibia 12.6497
lfoot -10.583 0.98856
ltoes -38.1587
39
root 8.9852 16.273 31.6772 -158.613 -2.8443 176.104
lowerback -25.3708 -2.66735 -9.06402
upperback -1.30288 -1.28206 -1.36492
thorax 12.9088 -1.31259 3.12685
lowerneck 0.465255 -2.90374 -1.83203
upperneck -16.6892 -4.4139 5.98457
head -4.89611 -2.90649 2.38971
rclavicle 3.18055e-015 1.07344e-014
rhumerus -33.6759 -18.7909 -80.2779
rradius 26.18
rwrist 0.086774
rhand -8.70748 -56.0059
rfingers 7.12502
rthumb 17.228 -85.2623
lclavicle 3.18055e-015 1.07344e-014
lhumerus -30.3151 23.4967 71.8769
lradius 8.43633
lwrist -27.2456
lhand -21.266 -10.4325
lfingers 7.12502
lthumb 5.11756 19.4857
rfemur -19.7091 6.97048 16.106
rtibia 9.69006
rfoot -20.2908 -9.15919
rtoes -31.9984
lfemur -21.7994 -10.5821 -23.6324
ltibia 12.6965
lfoot -10.626 0.954317
ltoes -38.5834
40
root 8.98493 16.2729 31.6774 -158.612 -2.86554 176.087
lowerback -25.3892 -2.6753 -9.07535
upperback -1.26806 -1.27992 -1.37631
thorax 12.96 -1.31313 3.11975
lowerneck 0.321654 -2.71612 -1.92668
upperneck -16.7158 -4.20415 5.71015
head -4.89377 -2.78281 2.3102
rclavicle -9.19379e-015 5.56597e-015
rhumerus -33.6326 -18.9379 -80.1894
rradius 26.0357
rwrist 0.467886
rhand -8.24326 -55.2997
rfingers 7.12502
rthumb 17.6748 -84.5163
lclavicle -9.19379e-015 5.56597e-015
lhumerus -30.3399 23.4871 71.8092
lradius 8.58511
lwrist -27.3432
lhand -21.2384 -10.7463
lfingers 7.12502
lthumb 5.14418 19.1713
rfemur -19.6896 6.94613 16.0877
rtibia 9.6588
rfoot -20.2491 -9.14522
rtoes -32.0203
lfemur -21.8033 -10.5453 -23.6657
ltibia 12.7298
lfoot -10.6859 0.921318
ltoes -39.37
41
root 8.98361 16.2735 31.6778 -158.631 -2.86454 176.041
lowerback -25.3427 -2.66661 -9.09827
upperback -1.26133 -1.26338 -1.39844
thorax 12.9403 -1.30544 3.11434
lowerneck 0.497499 -2.83128 -1.86545
upperneck -16.6893 -4.31121 5.98807
head -4.90474 -2.85317 2.3932
rclavicle 6.4605e-015 -2.10712e-014
rhumerus -33.6521 -19.2428 -79.971
rradius 25.8049
rwrist 1.14159
rhand -7.0571 -53.8389
rfingers 7.12502
rthumb 18.8159 -82.9489
lclavicle 6.4605e-015 -2.10712e-014
lhumerus -30.3515 23.4894 71.8099
lradius 8.75529
lwrist -27.4686
lhand -21.2081 -11.0276
lfingers 7.12502
lthumb 5.17346 18.8893
rfemur -19.6363 7.04032 16.0134
rtibia 9.59251
rfoot -20.2529 -9.21942
rtoes -31.8034
lfemur -21.7795 -10.593 -23.7146
ltibia 12.71
lfoot -10.6179 0.937366
ltoes -38.9143
42
root 8.98167 16.2728 31.6761 -158.605 -2.88989 176.001
lowerback -25.3806 -2.68336 -9.12381
upperback -1.25688 -1.27486 -1.38517
thorax 12.9687 -1.31371 3.13889
lowerneck 0.603112 -2.83984 -1.90967
upperneck -16.747 -4.31363 6.06069
head -4.93721 -2.8578 2.42711
rclavicle -6.06293e-015 7.95139e-015
rhumerus -33.6324 -19.3009 -79.862
rradius 25.7898
rwrist 1.4239
rhand -6.29218 -53.555
rfingers 7.12502
rthumb 19.5515 -82.592
lclavicle -6.06293e-015 7.95139e-015
lhumerus -30.4054 23.5365 71.8495
lradius 9.04396
lwrist -27.44
lhand -20.9454 -11.101
lfingers 7.12502
lthumb 5.4271 18.8095
rfemur -19.6453 7.162 15.9379
rtibia 9.56931
rfoot -20.2433 -9.3501
rtoes -31.579
lfemur -21.7999 -10.6662 -23.7456
ltibia 12.666
lfoot -10.4373 0.945166
ltoes -38.2047
43
root 8.98073 16.2715 31.6733 -158.576 -2.93507 175.995
lowerback -25.4557 -2.70812 -9.13891
upperback -1.24425 -1.29503 -1.3685
thorax 13.0281 -1.32652 3.15711
lowerneck 0.642244 -2.7815 -1.94749
upperneck -16.7387 -4.23596 6.01059
head -4.94486 -2.81205 2.41544
rclavicle 3.08116e-015 3.97569e-015
rhumerus -33.6105 -19.2005 -79.8943
rradius 25.9327
rwrist 1.31621
rhand -6.16625 -53.9506
rfingers 7.12502
rthumb 19.6725 -82.9752
lclavicle 3.08116e-015 3.97569e-015
lhumerus -30.4958 23.556 71.8242
lradius 9.42141
lwrist -27.2634
lhand -20.6138 -10.8868
lfingers 7.12502
lthumb 5.74721 19.0153
rfemur -19.669 7.12811 15.9339
rtibia 9.61027
rfoot -20.2313 -9.35303
rtoes -31.6104
lfemur -21.8375 -10.7244 -23.7427
ltibia 12.6889
lfoot -10.3598 0.925126
ltoes -37.8644
44
root 8.9797 16.2706 31.671 -158.578 -2.9113 176.007
lowerback -25.4768 -2.64847 -9.07204
upperback -1.24271 -1.22793 -1.44045
thorax 13.0297 -1.29087 3.06011
lowerneck 0.608011 -2.7424 -1.82731
upperneck -16.6921 -4.17459 6.00775
head -4.92997 -2.78708 2.39034
rclavicle -7.00716e-015 2.14687e-014
rhumerus -33.662 -19.4239 -79.9136
rradius 25.9613
rwrist 1.48151
rhand -6.15815 -53.6548
rfingers 7.12502
rthumb 19.6803 -82.6786
lclavicle -7.00716e-015 2.14687e-014
lhumerus -30.5292 23.4579 71.7588
lradius 9.78201
lwrist -27.1223
lhand -20.5428 -10.6028
lfingers 7.12502
lthumb 5.81573 19.2974
rfemur -19.6226 7.12245 15.9424
rtibia 9.53966
rfoot -20.176 -9.35151
rtoes -31.5898
lfemur -21.815 -10.7115 -23.7504
ltibia 12.7031
lfoot -10.4715 0.979959
ltoes -38.3809
